<svg width="40" height="40" viewBox="0 0 40 40" fill="none" xmlns="http://www.w3.org/2000/svg">
<path d="M20 37.5C10.35 37.5 2.5 29.65 2.5 20C2.5 10.35 10.35 2.5 20 2.5C29.65 2.5 37.5 10.35 37.5 20C37.5 29.65 29.65 37.5 20 37.5ZM20 5C11.725 5 5 11.725 5 20C5 28.275 11.725 35 20 35C28.275 35 35 28.275 35 20C35 11.725 28.275 5 20 5Z" fill="#818489"/>
<path d="M20 28.75C19.3 28.75 18.75 28.2 18.75 27.5V12.5C18.75 11.8 19.3 11.25 20 11.25C20.7 11.25 21.25 11.8 21.25 12.5V27.5C21.25 28.2 20.7 28.75 20 28.75Z" fill="#818489"/>
<path d="M27.5 21.25H12.5C11.8 21.25 11.25 20.7 11.25 20C11.25 19.3 11.8 18.75 12.5 18.75H27.5C28.2 18.75 28.75 19.3 28.75 20C28.75 20.7 28.2 21.25 27.5 21.25Z" fill="#818489"/>
</svg>
