<svg width="40" height="40" viewBox="0 0 40 40" fill="none" xmlns="http://www.w3.org/2000/svg">
<circle cx="20" cy="20" r="19.5" stroke="#F1F2F3"/>
<g clip-path="url(#clip0_210_3500)">
<path d="M27.3368 21.2558H12.6629C12.2064 21.2558 11.8477 20.8944 11.8477 20.4345C11.8477 19.9746 12.2064 19.6133 12.6629 19.6133H27.3368C27.7933 19.6133 28.152 19.9746 28.152 20.4345C28.152 20.8944 27.7933 21.2558 27.3368 21.2558Z" fill="#F1F2F3"/>
<path d="M23.2605 27.005C23.1536 27.0063 23.0476 26.985 22.9493 26.9426C22.851 26.9002 22.7627 26.8375 22.6899 26.7586C22.3638 26.4301 22.3638 25.9209 22.6899 25.5924L27.8257 20.4185L22.6899 15.2446C22.3638 14.9161 22.3638 14.4069 22.6899 14.0784C23.016 13.7499 23.5214 13.7499 23.8475 14.0784L29.554 19.8272C29.8801 20.1557 29.8801 20.6649 29.554 20.9934L23.8475 26.7422C23.6844 26.9064 23.4725 26.9886 23.2768 26.9886L23.2605 27.005Z" fill="#F1F2F3"/>
</g>
<defs>
<clipPath id="clip0_210_3500">
<rect width="26.087" height="14.7826" fill="white" transform="translate(6.95703 13.043)"/>
</clipPath>
</defs>
</svg>
