<svg width="27" height="15" viewBox="0 0 27 15" fill="none" xmlns="http://www.w3.org/2000/svg">
<path d="M20.3798 8.21282H5.70584C5.24932 8.21282 4.89062 7.85147 4.89062 7.39157C4.89062 6.93167 5.24932 6.57031 5.70584 6.57031H20.3798C20.8363 6.57031 21.195 6.93167 21.195 7.39157C21.195 7.85147 20.8363 8.21282 20.3798 8.21282Z" fill="#F0F2F7"/>
<path d="M16.3035 13.962C16.1966 13.9633 16.0906 13.9421 15.9923 13.8996C15.894 13.8572 15.8056 13.7945 15.7328 13.7156C15.4068 13.3871 15.4068 12.878 15.7328 12.5494L20.8687 7.37554L15.7328 2.20162C15.4068 1.87312 15.4068 1.36394 15.7328 1.03544C16.0589 0.706937 16.5644 0.706937 16.8905 1.03544L22.597 6.78423C22.9231 7.11273 22.9231 7.62191 22.597 7.95042L16.8905 13.6992C16.7274 13.8635 16.5155 13.9456 16.3198 13.9456L16.3035 13.962Z" fill="#F0F2F7"/>
</svg>
