<svg width="13" height="18" viewBox="0 0 13 18" fill="none" xmlns="http://www.w3.org/2000/svg">
<path d="M2.47605 1.03169L3.37355 0.745024C4.21355 0.47669 5.11188 0.910857 5.47188 1.75919L6.18855 3.44919C6.50105 4.18502 6.32772 5.05086 5.76022 5.58919L4.18272 7.08752C4.27994 7.98419 4.58105 8.86669 5.08605 9.73502C5.56628 10.5749 6.20975 11.3102 6.97855 11.8975L8.87522 11.2642C9.59355 11.025 10.376 11.3009 10.8169 11.9484L11.8435 13.4567C12.3569 14.21 12.2644 15.2484 11.6285 15.8867L10.9469 16.5709C10.2685 17.2517 9.30022 17.4992 8.40355 17.2192C6.28799 16.5592 4.34272 14.6 2.56772 11.3417C0.790494 8.0778 0.163272 5.30891 0.686049 3.03502C0.906049 2.07836 1.58772 1.31586 2.47772 1.03169" fill="#313840"/>
</svg>
