<svg width="25" height="24" viewBox="0 0 25 24" fill="none" xmlns="http://www.w3.org/2000/svg">
<path d="M1.40237 2H9.98237L11.4694 8.69L9.60937 10.55C10.703 12.252 12.1501 13.6988 13.8524 14.792L15.7124 12.933L22.4024 14.42V23H21.4024C17.5527 23.0066 13.7838 21.8964 10.5524 19.804C8.1696 18.262 6.14041 16.2328 4.59837 13.85C2.50599 10.6186 1.39581 6.84967 1.40237 3V2ZM3.42937 4C3.59788 7.11991 4.5801 10.1414 6.27837 12.764C7.6667 14.909 9.49342 16.7357 11.6384 18.124C14.261 19.8223 17.2825 20.8045 20.4024 20.973V16.024L16.3494 15.124L14.1754 17.299L13.5124 16.922C10.995 15.4915 8.91091 13.4074 7.48037 10.89L7.10337 10.227L9.27837 8.053L8.37837 4H3.42937Z" fill="#484C52"/>
</svg>
