<svg width="402" height="204" viewBox="0 0 402 204" fill="none" xmlns="http://www.w3.org/2000/svg">
<g filter="url(#filter0_ii_168_3858)">
<path d="M-1.34117 2.95789C-1.34117 2.95789 59.2231 65.2015 102.754 53.2369C131.576 45.3151 130.456 2.78051 160.347 2.8232C190.161 2.86578 188.082 50.3167 217.762 53.1412C251.239 56.327 253.994 4.66849 287.566 2.71736C325.758 0.497762 331.364 67.5264 368.422 58.0236C391.695 52.0554 413.737 16.4094 413.737 16.4094L409.072 197.165C409.072 197.165 393.92 176.802 379.499 172.956C355.862 166.652 348.079 197.694 323.998 202.001C279.411 209.976 262.755 150.231 217.762 155.456C183.978 159.38 175.51 197.657 141.499 197.512C107.749 197.368 99.747 155.07 65.999 155.456C32.9274 155.834 -7.51176 197.512 -7.51176 197.512L-1.34117 2.95789Z" fill="#1D2124"/>
</g>
<path d="M-1.34117 2.95789L-0.982816 2.6092L-1.80361 1.76565L-1.84092 2.94204L-8.01151 197.496L-8.05246 198.787L-7.15291 197.86L-7.51176 197.512C-7.15291 197.86 -7.15283 197.86 -7.15259 197.86L-7.15134 197.858L-7.14609 197.853L-7.12459 197.831L-7.03816 197.743C-6.96142 197.665 -6.84666 197.548 -6.69535 197.397C-6.39273 197.093 -5.94393 196.647 -5.36061 196.078C-4.19394 194.942 -2.48936 193.316 -0.340212 191.364C3.95865 187.459 10.0334 182.249 17.1378 177.029C31.3745 166.567 49.6399 156.143 66.0047 155.956C82.6386 155.766 92.9351 166.073 103.393 176.637L103.564 176.81C113.925 187.277 124.479 197.939 141.497 198.012C158.722 198.085 169.474 188.409 180.059 178.373C180.425 178.026 180.789 177.68 181.154 177.333C191.4 167.603 201.694 157.826 217.82 155.953C239.798 153.4 254.946 166.504 270.154 179.661L270.705 180.138C286.04 193.401 301.527 206.528 324.086 202.493C334.999 200.542 342.615 193.175 349.717 186.306C350.57 185.481 351.416 184.663 352.26 183.862C360.168 176.354 367.836 170.363 379.37 173.439C386.444 175.326 393.757 181.293 399.341 186.857C402.123 189.629 404.457 192.283 406.096 194.244C406.915 195.224 407.56 196.03 408 196.591C408.22 196.871 408.388 197.09 408.501 197.239C408.529 197.275 408.554 197.308 408.575 197.336L408.629 197.407L408.661 197.45L408.669 197.46L408.671 197.463L408.671 197.463C408.671 197.463 408.671 197.463 409.072 197.165L408.671 197.463L409.535 198.624L409.572 197.178L414.237 16.4223L414.284 14.5732L413.312 16.1464L413.737 16.4094C413.312 16.1464 413.312 16.1465 413.311 16.1467L413.311 16.1477L413.308 16.1522L413.296 16.1709L413.249 16.2461C413.207 16.3129 413.145 16.4124 413.062 16.5427C412.896 16.8033 412.649 17.1871 412.326 17.6781C411.681 18.6602 410.732 20.0712 409.521 21.7836C407.098 25.2088 403.626 29.837 399.43 34.6498C391.016 44.3005 379.774 54.5962 368.297 57.5393C359.207 59.8705 352.064 57.5183 345.832 52.6838C339.567 47.8245 334.24 40.4713 328.828 32.8131C328.565 32.4409 328.301 32.068 328.038 31.6946C322.898 24.4143 317.643 16.9697 311.435 11.3871C304.892 5.50245 297.255 1.65344 287.537 2.21821C270.947 3.18242 261.774 16.1062 252.98 28.4973C252.727 28.8541 252.474 29.2104 252.221 29.5659C243.121 42.369 234.222 54.2053 217.809 52.6434C210.541 51.9517 205.213 48.5342 200.831 43.7555C196.557 39.0951 193.201 33.1635 189.834 27.2119C189.736 27.0388 189.638 26.8658 189.54 26.6927C186.088 20.5934 182.594 14.5085 178.077 9.95408C173.54 5.37904 167.958 2.33407 160.348 2.3232C145.092 2.30141 137.767 13.1887 130.723 24.7838C130.344 25.407 129.966 26.0324 129.588 26.6584C122.881 37.7559 116.046 49.0651 102.622 52.7548C91.8738 55.7089 80.0374 54.0911 68.2906 49.9568C56.5471 45.8236 44.9356 39.1903 34.6644 32.1713C24.3957 25.154 15.4818 17.7617 9.13424 12.1227C5.96092 9.30359 3.43009 6.92361 1.69326 5.2491C0.824864 4.41186 0.155028 3.75105 -0.297312 3.29995C-0.52348 3.07441 -0.695268 2.90129 -0.81031 2.78478C-0.86783 2.72652 -0.911163 2.68242 -0.940013 2.65298L-0.972388 2.61989L-0.98036 2.61172L-0.982279 2.60975C-0.982663 2.60936 -0.982816 2.6092 -1.34117 2.95789Z" stroke="#282D3B"/>
<defs>
<filter id="filter0_ii_168_3858" x="-8.59375" y="-4.42578" width="425.426" height="213.16" filterUnits="userSpaceOnUse" color-interpolation-filters="sRGB">
<feFlood flood-opacity="0" result="BackgroundImageFix"/>
<feBlend mode="normal" in="SourceGraphic" in2="BackgroundImageFix" result="shape"/>
<feColorMatrix in="SourceAlpha" type="matrix" values="0 0 0 0 0 0 0 0 0 0 0 0 0 0 0 0 0 0 127 0" result="hardAlpha"/>
<feOffset dx="2" dy="8"/>
<feGaussianBlur stdDeviation="2.5"/>
<feComposite in2="hardAlpha" operator="arithmetic" k2="-1" k3="1"/>
<feColorMatrix type="matrix" values="0 0 0 0 0 0 0 0 0 0 0 0 0 0 0 0 0 0 0.25 0"/>
<feBlend mode="normal" in2="shape" result="effect1_innerShadow_168_3858"/>
<feColorMatrix in="SourceAlpha" type="matrix" values="0 0 0 0 0 0 0 0 0 0 0 0 0 0 0 0 0 0 127 0" result="hardAlpha"/>
<feOffset dx="2" dy="-8"/>
<feGaussianBlur stdDeviation="2.5"/>
<feComposite in2="hardAlpha" operator="arithmetic" k2="-1" k3="1"/>
<feColorMatrix type="matrix" values="0 0 0 0 0 0 0 0 0 0 0 0 0 0 0 0 0 0 0.25 0"/>
<feBlend mode="normal" in2="effect1_innerShadow_168_3858" result="effect2_innerShadow_168_3858"/>
</filter>
</defs>
</svg>
