<svg width="12" height="12" viewBox="0 0 12 12" fill="none" xmlns="http://www.w3.org/2000/svg">
<path d="M10.5 6.75375V8.049C10.728 7.91735 10.9174 7.728 11.049 7.49998C11.1807 7.27196 11.25 7.0133 11.25 6.75V4.5C11.25 3.70435 10.9339 2.94129 10.3713 2.37868C9.80871 1.81607 9.04565 1.5 8.25 1.5H3.75C3.4867 1.50001 3.22804 1.56932 3.00002 1.70097C2.772 1.83262 2.58265 2.02198 2.451 2.25H8.25C8.84674 2.25 9.41903 2.48705 9.84099 2.90901C10.2629 3.33097 10.5 3.90326 10.5 4.5V6.75375ZM2.25 3C1.85218 3 1.47064 3.15804 1.18934 3.43934C0.908035 3.72064 0.75 4.10218 0.75 4.5V8.25C0.75 8.64782 0.908035 9.02936 1.18934 9.31066C1.47064 9.59196 1.85218 9.75 2.25 9.75V10.4985C2.24998 10.6368 2.28823 10.7725 2.36051 10.8905C2.43278 11.0084 2.53628 11.1041 2.65955 11.1669C2.78282 11.2297 2.92105 11.2572 3.05897 11.2463C3.19688 11.2354 3.3291 11.1866 3.441 11.1053L5.30475 9.75H8.25C8.64782 9.75 9.02936 9.59196 9.31066 9.31066C9.59196 9.02936 9.75 8.64782 9.75 8.25V4.5C9.75 4.10218 9.59196 3.72064 9.31066 3.43934C9.02936 3.15804 8.64782 3 8.25 3H2.25ZM1.5 4.5C1.5 4.30109 1.57902 4.11032 1.71967 3.96967C1.86032 3.82902 2.05109 3.75 2.25 3.75H8.25C8.44891 3.75 8.63968 3.82902 8.78033 3.96967C8.92098 4.11032 9 4.30109 9 4.5V8.25C9 8.44891 8.92098 8.63968 8.78033 8.78033C8.63968 8.92098 8.44891 9 8.25 9H5.06025L3 10.4985V9H2.25C2.05109 9 1.86032 8.92098 1.71967 8.78033C1.57902 8.63968 1.5 8.44891 1.5 8.25V4.5Z" fill="#798088"/>
<path d="M10.5 6.75375V8.049C10.728 7.91735 10.9174 7.728 11.049 7.49998C11.1807 7.27196 11.25 7.0133 11.25 6.75V4.5C11.25 3.70435 10.9339 2.94129 10.3713 2.37868C9.80871 1.81607 9.04565 1.5 8.25 1.5H3.75C3.4867 1.50001 3.22804 1.56932 3.00002 1.70097C2.772 1.83262 2.58265 2.02198 2.451 2.25H8.25C8.84674 2.25 9.41903 2.48705 9.84099 2.90901C10.2629 3.33097 10.5 3.90326 10.5 4.5V6.75375ZM2.25 3C1.85218 3 1.47064 3.15804 1.18934 3.43934C0.908035 3.72064 0.75 4.10218 0.75 4.5V8.25C0.75 8.64782 0.908035 9.02936 1.18934 9.31066C1.47064 9.59196 1.85218 9.75 2.25 9.75V10.4985C2.24998 10.6368 2.28823 10.7725 2.36051 10.8905C2.43278 11.0084 2.53628 11.1041 2.65955 11.1669C2.78282 11.2297 2.92105 11.2572 3.05897 11.2463C3.19688 11.2354 3.3291 11.1866 3.441 11.1053L5.30475 9.75H8.25C8.64782 9.75 9.02936 9.59196 9.31066 9.31066C9.59196 9.02936 9.75 8.64782 9.75 8.25V4.5C9.75 4.10218 9.59196 3.72064 9.31066 3.43934C9.02936 3.15804 8.64782 3 8.25 3H2.25ZM1.5 4.5C1.5 4.30109 1.57902 4.11032 1.71967 3.96967C1.86032 3.82902 2.05109 3.75 2.25 3.75H8.25C8.44891 3.75 8.63968 3.82902 8.78033 3.96967C8.92098 4.11032 9 4.30109 9 4.5V8.25C9 8.44891 8.92098 8.63968 8.78033 8.78033C8.63968 8.92098 8.44891 9 8.25 9H5.06025L3 10.4985V9H2.25C2.05109 9 1.86032 8.92098 1.71967 8.78033C1.57902 8.63968 1.5 8.44891 1.5 8.25V4.5Z" fill="#798088"/>
</svg>
