<svg width="25" height="24" viewBox="0 0 25 24" fill="none" xmlns="http://www.w3.org/2000/svg">
<path d="M18.8008 10.5V19.125C18.8008 19.3712 18.7523 19.615 18.6581 19.8425C18.5638 20.07 18.4257 20.2767 18.2516 20.4508C18.0775 20.6249 17.8708 20.763 17.6433 20.8573C17.4158 20.9515 17.172 21 16.9258 21H5.67578C5.1785 21 4.70159 20.8025 4.34996 20.4508C3.99833 20.0992 3.80078 19.6223 3.80078 19.125V7.875C3.80078 7.37772 3.99833 6.90081 4.34996 6.54917C4.70159 6.19754 5.1785 6 5.67578 6H13.5264" stroke="#484C52" stroke-width="1.5" stroke-linecap="round" stroke-linejoin="round"/>
<path d="M22.3605 2.49611C22.292 2.42085 22.209 2.36025 22.1164 2.31799C22.0238 2.27573 21.9237 2.25267 21.8219 2.25022C21.7202 2.24777 21.619 2.26596 21.5245 2.30371C21.43 2.34147 21.3441 2.39798 21.2721 2.46986L20.6922 3.04689C20.622 3.11721 20.5825 3.21255 20.5825 3.31197C20.5825 3.41138 20.622 3.50673 20.6922 3.57704L21.2238 4.10767C21.2587 4.14268 21.3001 4.17046 21.3457 4.18941C21.3913 4.20837 21.4402 4.21812 21.4896 4.21812C21.539 4.21812 21.5879 4.20837 21.6335 4.18941C21.6791 4.17046 21.7205 4.14268 21.7554 4.10767L22.3207 3.54517C22.6066 3.2597 22.6333 2.7947 22.3605 2.49611ZM19.5199 4.21876L11.058 12.6656C11.0067 12.7167 10.9694 12.7802 10.9497 12.8499L10.5583 14.0156C10.549 14.0473 10.5483 14.0808 10.5564 14.1128C10.5645 14.1448 10.5811 14.174 10.6045 14.1973C10.6278 14.2207 10.657 14.2373 10.689 14.2454C10.7209 14.2535 10.7545 14.2528 10.7862 14.2435L11.951 13.852C12.0207 13.8324 12.0841 13.7951 12.1352 13.7438L20.5821 5.28095C20.6602 5.20197 20.7041 5.09534 20.7041 4.98423C20.7041 4.87312 20.6602 4.7665 20.5821 4.68751L20.1157 4.21876C20.0366 4.1399 19.9295 4.09562 19.8178 4.09562C19.7061 4.09562 19.599 4.1399 19.5199 4.21876Z" fill="#484C52"/>
</svg>
