<svg width="24" height="24" viewBox="0 0 24 24" fill="none" xmlns="http://www.w3.org/2000/svg">
<path d="M22.3212 0.0905469C22.2312 0.0905469 22.2013 0.150547 22.1413 0.180547L10.8913 8.16055C10.7713 8.25055 10.5913 8.49055 10.5013 8.64055L10.1112 9.39055C12.2712 10.0805 13.9213 11.7305 14.6112 13.8905L15.3612 13.5005C15.5113 13.4105 15.7213 13.2605 15.8413 13.1105L23.8212 1.86055C23.9112 1.71055 23.9412 1.59055 23.8212 1.47055L22.5012 0.150547C22.4412 0.0905469 22.3813 0.0605469 22.3212 0.0605469V0.0905469ZM7.98125 12.0005C5.76125 12.0005 4.05125 13.8305 4.05125 16.0205C4.05125 18.9905 2.40125 21.5705 0.03125 22.9505C1.20125 23.6105 2.61125 23.9705 4.05125 23.9705C8.46125 23.9705 12.0312 20.4305 12.0312 15.9905C12.0312 13.7705 10.2013 11.9705 8.01125 11.9705L7.98125 12.0005Z" fill="#5E6A7C"/>
</svg>
