<svg width="23" height="22" viewBox="0 0 23 22" fill="none" xmlns="http://www.w3.org/2000/svg">
<path d="M13.0308 0.888672L22.6878 10.5457L14.3428 18.8907L14.0728 19.1607H19.0008V21.1607H5.7478L2.0818 17.4947C1.71035 17.1232 1.41569 16.6823 1.21466 16.197C1.01363 15.7116 0.910156 15.1915 0.910156 14.6662C0.910156 14.1409 1.01363 13.6207 1.21466 13.1354C1.41569 12.6501 1.71035 12.2091 2.0818 11.8377L13.0308 0.888672ZM13.3528 17.0517L19.8598 10.5457L13.0308 3.71667L6.2028 10.5457L13.0308 17.3737L13.3508 17.0507L13.3528 17.0517ZM4.7888 11.9597L3.4958 13.2527C3.12086 13.6277 2.91023 14.1363 2.91023 14.6667C2.91023 15.197 3.12086 15.7056 3.4958 16.0807L6.5758 19.1607H11.2558L11.6218 18.7927L4.7888 11.9597Z" fill="#EF4E4E"/>
</svg>
