<svg width="376" height="7" viewBox="0 0 376 7" fill="none" xmlns="http://www.w3.org/2000/svg">
<path d="M0.113259 3.5078L3.0078 6.38674L5.88674 3.4922L2.9922 0.613259L0.113259 3.5078ZM191.887 2.9895L188.992 0.110556L186.113 3.0051L189.008 5.88404L191.887 2.9895ZM3.00135 4L189.001 3.4973L188.999 2.4973L2.99865 3L3.00135 4Z" fill="url(#paint0_linear_170_5139)" fill-opacity="0.78"/>
<path d="M193.113 2.99185L195.992 5.88674L198.887 3.00815L196.008 0.11326L193.113 2.99185ZM375.887 3.50817L373.008 0.613271L370.113 3.49186L372.992 6.38675L375.887 3.50817ZM195.999 3.5L372.999 4.00001L373.001 3.00001L196.001 2.5L195.999 3.5Z" fill="url(#paint1_linear_170_5139)" fill-opacity="0.78"/>
<defs>
<linearGradient id="paint0_linear_170_5139" x1="3.00135" y1="4" x2="189.001" y2="3.4973" gradientUnits="userSpaceOnUse">
<stop stop-color="#615858" stop-opacity="0"/>
<stop offset="1" stop-color="#B4BBC7"/>
</linearGradient>
<linearGradient id="paint1_linear_170_5139" x1="195.999" y1="3.5" x2="372.999" y2="4.00001" gradientUnits="userSpaceOnUse">
<stop stop-color="#B4BCC7"/>
<stop offset="1" stop-color="#615858" stop-opacity="0"/>
</linearGradient>
</defs>
</svg>
