<svg width="22" height="13" viewBox="0 0 22 13" fill="none" xmlns="http://www.w3.org/2000/svg">
<path d="M8.34278 12.7814L6.41078 12.2634L7.19778 9.32438C6.01985 8.88969 4.92504 8.25654 3.96078 7.45237L1.80778 9.60637L0.393781 8.19237L2.54678 6.03837C1.33097 4.58206 0.514001 2.8351 0.175781 0.968375L2.14378 0.609375C2.52123 2.68318 3.61446 4.55878 5.23291 5.90925C6.85136 7.25972 8.8924 7.99942 11.0003 7.99942C13.1082 7.99942 15.1492 7.25972 16.7677 5.90925C18.3861 4.55878 19.4793 2.68318 19.8568 0.609375L21.8248 0.967375C21.4864 2.83455 20.6691 4.58188 19.4528 6.03837L21.6068 8.19237L20.1928 9.60637L18.0388 7.45237C17.0745 8.25654 15.9797 8.88969 14.8018 9.32438L15.5898 12.2644L13.6578 12.7814L12.8698 9.84138C11.6323 10.0549 10.3673 10.0549 9.12978 9.84138L8.34278 12.7814Z" fill="#BEB6B6"/>
</svg>
