<svg width="104" height="23" viewBox="0 0 104 23" fill="none" xmlns="http://www.w3.org/2000/svg">
<g filter="url(#filter0_d_375_2928)">
<path d="M13.072 13.5208C12.846 12.8536 12.2201 12.4048 11.5157 12.4048H9.15628C8.45195 12.4048 7.82595 12.8536 7.6 13.5208L7.56798 13.6153C7.36117 14.2259 6.7882 14.6368 6.14353 14.6368C5.10086 14.6368 4.37455 13.6016 4.72931 12.6211L8.09456 3.32028C8.38111 2.52834 9.13306 2.00075 9.97524 2.00075H10.7328C11.5749 2.00075 12.3269 2.52833 12.6134 3.32028L15.9705 12.5986C16.3293 13.59 15.5948 14.6368 14.5405 14.6368C13.8886 14.6368 13.3093 14.2213 13.1002 13.6039L13.072 13.5208ZM10.3421 10.0288C11.108 10.0288 11.6474 9.27663 11.4018 8.55124C11.0581 7.53598 9.62132 7.53849 9.28118 8.55495C9.03868 9.27963 9.57795 10.0288 10.3421 10.0288Z" fill="#F3F7FF"/>
<path d="M20.84 5.91017C21.374 7.66673 23.8609 7.66673 24.395 5.91017L24.4681 5.6697C24.6625 5.03001 25.2525 4.59275 25.9211 4.59275C26.97 4.59275 27.7031 5.6308 27.3524 6.61933L24.9798 13.3056C24.6967 14.1036 23.9417 14.6368 23.095 14.6368H22.122C21.2753 14.6368 20.5203 14.1036 20.2371 13.3056L17.8685 6.63046C17.5158 5.6365 18.253 4.59275 19.3077 4.59275C19.98 4.59275 20.5731 5.03241 20.7687 5.67562L20.84 5.91017Z" fill="#F3F7FF"/>
<path d="M28.7551 9.59675C28.7551 8.56475 28.9471 7.65875 29.3311 6.87875C29.7271 6.09875 30.2611 5.49875 30.9331 5.07875C31.6051 4.65875 32.3551 4.44875 33.1831 4.44875C33.8911 4.44875 34.5091 4.59275 35.0371 4.88075C35.2178 4.97713 35.3844 5.08359 35.5369 5.20014C35.7882 5.3922 36.2791 5.22275 36.2791 4.90645C36.2791 4.7332 36.4195 4.59275 36.5928 4.59275H37.8181C38.668 4.59275 39.3571 5.28178 39.3571 6.13175V13.0978C39.3571 13.9477 38.668 14.6368 37.8181 14.6368H36.6013C36.4233 14.6368 36.2791 14.4925 36.2791 14.3145C36.2791 13.9927 35.7914 13.8222 35.5359 14.0179C35.378 14.1389 35.2057 14.2492 35.0191 14.3488C34.4911 14.6368 33.8731 14.7808 33.1651 14.7808C32.3491 14.7808 31.6051 14.5708 30.9331 14.1508C30.2611 13.7188 29.7271 13.1128 29.3311 12.3328C28.9471 11.5408 28.7551 10.6288 28.7551 9.59675ZM36.2791 9.61475C36.2791 8.84675 36.0631 8.24075 35.6311 7.79675C35.2111 7.35275 34.6951 7.13075 34.0831 7.13075C33.4711 7.13075 32.9491 7.35275 32.5171 7.79675C32.0971 8.22875 31.8871 8.82875 31.8871 9.59675C31.8871 10.3648 32.0971 10.9768 32.5171 11.4328C32.9491 11.8768 33.4711 12.0988 34.0831 12.0988C34.6951 12.0988 35.2111 11.8768 35.6311 11.4328C36.0631 10.9888 36.2791 10.3828 36.2791 9.61475Z" fill="#F3F7FF"/>
<path d="M46.0839 12.0268C46.6903 12.0268 47.1819 12.5183 47.1819 13.1248V13.3318C47.1819 14.0525 46.5976 14.6368 45.8769 14.6368H45.6159C44.4999 14.6368 43.6299 14.3668 43.0059 13.8268C42.3819 13.2748 42.0699 12.3808 42.0699 11.1448V7.76075C42.0699 7.42275 41.7959 7.14875 41.4579 7.14875C41.1199 7.14875 40.8459 6.87475 40.8459 6.53675V5.20475C40.8459 4.86675 41.1199 4.59275 41.4579 4.59275C41.7959 4.59275 42.0699 4.31875 42.0699 3.98075V3.36875C42.0699 2.69275 42.6179 2.14475 43.2939 2.14475H43.9239C44.5999 2.14475 45.1479 2.69275 45.1479 3.36875V3.58475C45.1479 4.14145 45.5992 4.59275 46.1559 4.59275C46.7126 4.59275 47.1639 5.04405 47.1639 5.60075V6.14075C47.1639 6.69745 46.7126 7.14875 46.1559 7.14875C45.5992 7.14875 45.1479 7.60005 45.1479 8.15675V11.1808C45.1479 11.4808 45.2199 11.6968 45.3639 11.8288C45.5079 11.9608 45.7479 12.0268 46.0839 12.0268Z" fill="#F3F7FF"/>
<path d="M48.2844 9.59675C48.2844 8.56475 48.4764 7.65875 48.8604 6.87875C49.2564 6.09875 49.7904 5.49875 50.4624 5.07875C51.1344 4.65875 51.8844 4.44875 52.7124 4.44875C53.4204 4.44875 54.0384 4.59275 54.5664 4.88075C54.7471 4.97713 54.9137 5.08359 55.0662 5.20014C55.3175 5.3922 55.8084 5.22275 55.8084 4.90645C55.8084 4.7332 55.9488 4.59275 56.1221 4.59275H57.3474C58.1973 4.59275 58.8864 5.28178 58.8864 6.13175V13.0978C58.8864 13.9477 58.1973 14.6368 57.3474 14.6368H56.1306C55.9526 14.6368 55.8084 14.4925 55.8084 14.3145C55.8084 13.9927 55.3207 13.8222 55.0652 14.0179C54.9073 14.1389 54.735 14.2492 54.5484 14.3488C54.0204 14.6368 53.4024 14.7808 52.6944 14.7808C51.8784 14.7808 51.1344 14.5708 50.4624 14.1508C49.7904 13.7188 49.2564 13.1128 48.8604 12.3328C48.4764 11.5408 48.2844 10.6288 48.2844 9.59675ZM55.8084 9.61475C55.8084 8.84675 55.5924 8.24075 55.1604 7.79675C54.7404 7.35275 54.2244 7.13075 53.6124 7.13075C53.0004 7.13075 52.4784 7.35275 52.0464 7.79675C51.6264 8.22875 51.4164 8.82875 51.4164 9.59675C51.4164 10.3648 51.6264 10.9768 52.0464 11.4328C52.4784 11.8768 53.0004 12.0988 53.6124 12.0988C54.2244 12.0988 54.7404 11.8768 55.1604 11.4328C55.5924 10.9888 55.8084 10.3828 55.8084 9.61475Z" fill="#F3F7FF"/>
<path d="M64.1912 4.97635C64.1912 5.35789 64.7512 5.54871 65.048 5.30904C65.2031 5.18387 65.3675 5.0711 65.5412 4.97075C65.6156 4.92606 65.6913 4.88445 65.768 4.84593C66.5721 4.44239 67.3412 5.21408 67.3412 6.11375V6.89675C67.3412 7.36398 66.9624 7.74275 66.4952 7.74275C65.7272 7.74275 65.1512 7.91075 64.7672 8.24675C64.3832 8.57075 64.1912 9.14675 64.1912 9.97475V13.0978C64.1912 13.9477 63.5021 14.6368 62.6522 14.6368C61.8022 14.6368 61.1132 13.9477 61.1132 13.0977V6.13175C61.1132 5.28178 61.8022 4.59275 62.6522 4.59275H63.8076C64.0194 4.59275 64.1912 4.76449 64.1912 4.97635Z" fill="#F3F7FF"/>
<path d="M72.8984 14.7808C72.0224 14.7808 71.2424 14.6308 70.5584 14.3308C69.8744 14.0308 69.3344 13.6228 68.9384 13.1068C68.8865 13.0376 68.8376 12.9674 68.7917 12.8962C68.3075 12.1449 69.034 11.3428 69.9278 11.3428H70.3085C70.88 11.3428 71.3432 11.8458 71.8004 12.1888C72.0884 12.4048 72.4424 12.5128 72.8624 12.5128C73.2464 12.5128 73.5404 12.4408 73.7444 12.2968C73.9604 12.1408 74.0684 11.9428 74.0684 11.7028C74.0684 11.4148 73.9184 11.2048 73.6184 11.0728C73.3184 10.9288 72.8324 10.7728 72.1604 10.6048C71.4404 10.4368 70.8404 10.2628 70.3604 10.0828C69.8804 9.89075 69.4664 9.59675 69.1184 9.20075C68.7704 8.79275 68.5964 8.24675 68.5964 7.56275C68.5964 6.98675 68.7524 6.46475 69.0644 5.99675C69.3884 5.51675 69.8564 5.13875 70.4684 4.86275C71.0924 4.58675 71.8304 4.44875 72.6824 4.44875C73.9424 4.44875 74.9324 4.76075 75.6524 5.38475C75.9828 5.66646 76.2497 5.98974 76.453 6.35459C76.8675 7.09862 76.1709 7.86875 75.3192 7.86875H75.0453C74.4854 7.86875 74.0434 7.38308 73.6004 7.04075C73.3484 6.83675 73.0124 6.73475 72.5924 6.73475C72.2324 6.73475 71.9564 6.80675 71.7644 6.95075C71.5724 7.08275 71.4764 7.26875 71.4764 7.50875C71.4764 7.79675 71.6264 8.01275 71.9264 8.15675C72.2384 8.30075 72.7184 8.44475 73.3664 8.58875C74.1104 8.78075 74.7164 8.97275 75.1844 9.16475C75.6524 9.34475 76.0604 9.64475 76.4084 10.0648C76.7684 10.4728 76.9544 11.0248 76.9664 11.7208C76.9664 12.3088 76.7984 12.8368 76.4624 13.3048C76.1384 13.7608 75.6644 14.1208 75.0404 14.3848C74.4284 14.6488 73.7144 14.7808 72.8984 14.7808Z" fill="#F3F7FF"/>
<path d="M80.2895 14.7808C79.7495 14.7808 79.3055 14.6248 78.9575 14.3128C78.6215 13.9888 78.4535 13.5928 78.4535 13.1248C78.4535 12.6448 78.6215 12.2428 78.9575 11.9188C79.3055 11.5948 79.7495 11.4328 80.2895 11.4328C80.8175 11.4328 81.2495 11.5948 81.5855 11.9188C81.9335 12.2428 82.1075 12.6448 82.1075 13.1248C82.1075 13.5928 81.9335 13.9888 81.5855 14.3128C81.2495 14.6248 80.8175 14.7808 80.2895 14.7808Z" fill="#F3F7FF"/>
<path d="M83.3176 9.59675C83.3176 8.56475 83.5096 7.65875 83.8936 6.87875C84.2896 6.09875 84.8236 5.49875 85.4956 5.07875C86.1676 4.65875 86.9176 4.44875 87.7456 4.44875C88.4536 4.44875 89.0716 4.59275 89.5996 4.88075C89.7803 4.97713 89.9469 5.08359 90.0994 5.20014C90.3507 5.3922 90.8416 5.22275 90.8416 4.90645C90.8416 4.7332 90.982 4.59275 91.1553 4.59275H92.3806C93.2305 4.59275 93.9196 5.28179 93.9196 6.13175V13.0978C93.9196 13.9477 93.2305 14.6368 92.3806 14.6368H91.1638C90.9858 14.6368 90.8416 14.4925 90.8416 14.3145C90.8416 13.9927 90.3539 13.8222 90.0984 14.0179C89.9405 14.1389 89.7682 14.2492 89.5816 14.3488C89.0536 14.6368 88.4356 14.7808 87.7276 14.7808C86.9116 14.7808 86.1676 14.5708 85.4956 14.1508C84.8236 13.7188 84.2896 13.1128 83.8936 12.3328C83.5096 11.5408 83.3176 10.6288 83.3176 9.59675ZM90.8416 9.61475C90.8416 8.84675 90.6256 8.24075 90.1936 7.79675C89.7736 7.35275 89.2576 7.13075 88.6456 7.13075C88.0336 7.13075 87.5116 7.35275 87.0796 7.79675C86.6596 8.22875 86.4496 8.82875 86.4496 9.59675C86.4496 10.3648 86.6596 10.9768 87.0796 11.4328C87.5116 11.8768 88.0336 12.0988 88.6456 12.0988C89.2576 12.0988 89.7736 11.8768 90.1936 11.4328C90.6256 10.9888 90.8416 10.3828 90.8416 9.61475Z" fill="#F3F7FF"/>
<path d="M97.6944 3.54875C97.1544 3.54875 96.7104 3.39275 96.3624 3.08075C96.0264 2.75675 95.8584 2.36075 95.8584 1.89275C95.8584 1.41275 96.0264 1.01675 96.3624 0.70475C96.7104 0.38075 97.1544 0.21875 97.6944 0.21875C98.2224 0.21875 98.6544 0.38075 98.9904 0.70475C99.3384 1.01675 99.5124 1.41275 99.5124 1.89275C99.5124 2.36075 99.3384 2.75675 98.9904 3.08075C98.6544 3.39275 98.2224 3.54875 97.6944 3.54875ZM97.6854 4.59275C98.5353 4.59275 99.2244 5.28178 99.2244 6.13175V13.0978C99.2244 13.9477 98.5353 14.6368 97.6854 14.6368C96.8354 14.6368 96.1464 13.9477 96.1464 13.0978V6.13175C96.1464 5.28178 96.8354 4.59275 97.6854 4.59275Z" fill="#F3F7FF"/>
</g>
<defs>
<filter id="filter0_d_375_2928" x="0.636719" y="0.21875" width="102.875" height="22.5625" filterUnits="userSpaceOnUse" color-interpolation-filters="sRGB">
<feFlood flood-opacity="0" result="BackgroundImageFix"/>
<feColorMatrix in="SourceAlpha" type="matrix" values="0 0 0 0 0 0 0 0 0 0 0 0 0 0 0 0 0 0 127 0" result="hardAlpha"/>
<feOffset dy="4"/>
<feGaussianBlur stdDeviation="2"/>
<feComposite in2="hardAlpha" operator="out"/>
<feColorMatrix type="matrix" values="0 0 0 0 0 0 0 0 0 0 0 0 0 0 0 0 0 0 0.25 0"/>
<feBlend mode="normal" in2="BackgroundImageFix" result="effect1_dropShadow_375_2928"/>
<feBlend mode="normal" in="SourceGraphic" in2="effect1_dropShadow_375_2928" result="shape"/>
</filter>
</defs>
</svg>
