<svg width="22" height="12" viewBox="0 0 22 12" fill="none" xmlns="http://www.w3.org/2000/svg">
<path fill-rule="evenodd" clip-rule="evenodd" d="M8.69 1.17595C8.02748 0.872354 7.28244 0.799135 6.5735 0.967951L1.25 2.15045C1.295 4.55995 1.2025 7.03545 2.737 9.09695C4.334 11.244 7.363 11.5405 9.079 10.6655C10.795 9.79045 10.4435 9.47295 11.001 9.38245C11.5585 9.47295 11.207 9.79045 12.921 10.6655C14.6365 11.5405 17.666 11.244 19.2645 9.09695C20.7995 7.03695 20.7065 4.56195 20.7495 2.15045L15.4265 0.965451C14.7182 0.797095 13.9739 0.870307 13.312 1.17345C12.6695 1.46645 12.322 1.76495 11.001 1.76495C9.678 1.76495 9.3325 1.46645 8.688 1.17345L8.69 1.17595ZM9.4665 6.70645C8.3175 4.24045 6.4425 4.48795 4.6475 5.23095C5.3165 6.84695 7.127 7.38095 9.1415 7.31495C9.5265 7.21645 9.5705 6.92545 9.4665 6.70645ZM12.5355 6.70845C13.684 4.24045 15.559 4.48795 17.354 5.23045C16.6855 6.84645 14.875 7.38095 12.8605 7.31495C12.475 7.21845 12.4315 6.92745 12.5355 6.70845Z" stroke="#5E6A7C" stroke-width="1.5" stroke-linecap="round" stroke-linejoin="round"/>
</svg>
