<svg width="376" height="20" viewBox="0 0 376 20" fill="none" xmlns="http://www.w3.org/2000/svg">
<path d="M0.113249 9.5L3 12.3868L5.88675 9.5L3 6.61325L0.113249 9.5ZM126.887 9.5L124 6.61325L121.113 9.5L124 12.3868L126.887 9.5ZM3 10H124V9H3V10Z" fill="url(#paint0_linear_168_3864)" fill-opacity="0.78"/>
<path opacity="0.5" d="M146.772 15L144.614 11.295H143.184V15H142.001V5.939H144.926C145.611 5.939 146.187 6.056 146.655 6.29C147.132 6.524 147.487 6.84033 147.721 7.239C147.955 7.63767 148.072 8.09267 148.072 8.604C148.072 9.228 147.89 9.77833 147.526 10.255C147.171 10.7317 146.633 11.048 145.914 11.204L148.189 15H146.772ZM143.184 10.346H144.926C145.567 10.346 146.048 10.19 146.369 9.878C146.69 9.55733 146.85 9.13267 146.85 8.604C146.85 8.06667 146.69 7.65067 146.369 7.356C146.057 7.06133 145.576 6.914 144.926 6.914H143.184V10.346ZM156.41 11.165C156.41 11.3903 156.397 11.6287 156.371 11.88H150.677C150.721 12.582 150.959 13.1323 151.392 13.531C151.834 13.921 152.367 14.116 152.991 14.116C153.503 14.116 153.927 13.999 154.265 13.765C154.612 13.5223 154.855 13.2017 154.993 12.803H156.267C156.077 13.4877 155.695 14.0467 155.123 14.48C154.551 14.9047 153.841 15.117 152.991 15.117C152.315 15.117 151.709 14.9653 151.171 14.662C150.643 14.3587 150.227 13.9297 149.923 13.375C149.62 12.8117 149.468 12.1617 149.468 11.425C149.468 10.6883 149.616 10.0427 149.91 9.488C150.205 8.93333 150.617 8.50867 151.145 8.214C151.683 7.91067 152.298 7.759 152.991 7.759C153.667 7.759 154.265 7.90633 154.785 8.201C155.305 8.49567 155.704 8.903 155.981 9.423C156.267 9.93433 156.41 10.515 156.41 11.165ZM155.188 10.918C155.188 10.4673 155.089 10.0817 154.889 9.761C154.69 9.43167 154.417 9.18467 154.07 9.02C153.732 8.84667 153.355 8.76 152.939 8.76C152.341 8.76 151.83 8.95067 151.405 9.332C150.989 9.71333 150.751 10.242 150.69 10.918H155.188ZM157.53 11.425C157.53 10.6883 157.677 10.047 157.972 9.501C158.266 8.94633 158.674 8.51733 159.194 8.214C159.722 7.91067 160.325 7.759 161.001 7.759C161.876 7.759 162.595 7.97133 163.159 8.396C163.731 8.82067 164.108 9.41 164.29 10.164H163.016C162.894 9.73067 162.656 9.38833 162.301 9.137C161.954 8.88567 161.521 8.76 161.001 8.76C160.325 8.76 159.779 8.994 159.363 9.462C158.947 9.92133 158.739 10.5757 158.739 11.425C158.739 12.283 158.947 12.946 159.363 13.414C159.779 13.882 160.325 14.116 161.001 14.116C161.521 14.116 161.954 13.9947 162.301 13.752C162.647 13.5093 162.886 13.1627 163.016 12.712H164.29C164.099 13.44 163.718 14.025 163.146 14.467C162.574 14.9003 161.859 15.117 161.001 15.117C160.325 15.117 159.722 14.9653 159.194 14.662C158.674 14.3587 158.266 13.9297 157.972 13.375C157.677 12.8203 157.53 12.1703 157.53 11.425ZM172.368 11.165C172.368 11.3903 172.355 11.6287 172.329 11.88H166.635C166.679 12.582 166.917 13.1323 167.35 13.531C167.792 13.921 168.325 14.116 168.949 14.116C169.461 14.116 169.885 13.999 170.223 13.765C170.57 13.5223 170.813 13.2017 170.951 12.803H172.225C172.035 13.4877 171.653 14.0467 171.081 14.48C170.509 14.9047 169.799 15.117 168.949 15.117C168.273 15.117 167.667 14.9653 167.129 14.662C166.601 14.3587 166.185 13.9297 165.881 13.375C165.578 12.8117 165.426 12.1617 165.426 11.425C165.426 10.6883 165.574 10.0427 165.868 9.488C166.163 8.93333 166.575 8.50867 167.103 8.214C167.641 7.91067 168.256 7.759 168.949 7.759C169.625 7.759 170.223 7.90633 170.743 8.201C171.263 8.49567 171.662 8.903 171.939 9.423C172.225 9.93433 172.368 10.515 172.368 11.165ZM171.146 10.918C171.146 10.4673 171.047 10.0817 170.847 9.761C170.648 9.43167 170.375 9.18467 170.028 9.02C169.69 8.84667 169.313 8.76 168.897 8.76C168.299 8.76 167.788 8.95067 167.363 9.332C166.947 9.71333 166.709 10.242 166.648 10.918H171.146ZM177.401 7.746C178.267 7.746 178.969 8.01033 179.507 8.539C180.044 9.059 180.313 9.813 180.313 10.801V15H179.143V10.97C179.143 10.2593 178.965 9.71767 178.61 9.345C178.254 8.96367 177.769 8.773 177.154 8.773C176.53 8.773 176.031 8.968 175.659 9.358C175.295 9.748 175.113 10.3157 175.113 11.061V15H173.93V7.876H175.113V8.89C175.347 8.526 175.663 8.24433 176.062 8.045C176.469 7.84567 176.915 7.746 177.401 7.746ZM183.688 8.851V13.05C183.688 13.3967 183.762 13.6437 183.909 13.791C184.056 13.9297 184.312 13.999 184.676 13.999H185.547V15H184.481C183.822 15 183.328 14.8483 182.999 14.545C182.67 14.2417 182.505 13.7433 182.505 13.05V8.851H181.582V7.876H182.505V6.082H183.688V7.876H185.547V8.851H183.688ZM190.004 10.463C190.004 9.579 190.204 8.786 190.602 8.084C191.001 7.37333 191.543 6.81867 192.227 6.42C192.921 6.02133 193.688 5.822 194.528 5.822C195.516 5.822 196.379 6.06033 197.115 6.537C197.852 7.01367 198.389 7.68967 198.727 8.565H197.31C197.059 8.019 196.695 7.59867 196.218 7.304C195.75 7.00933 195.187 6.862 194.528 6.862C193.896 6.862 193.328 7.00933 192.825 7.304C192.323 7.59867 191.928 8.019 191.642 8.565C191.356 9.10233 191.213 9.735 191.213 10.463C191.213 11.1823 191.356 11.815 191.642 12.361C191.928 12.8983 192.323 13.3143 192.825 13.609C193.328 13.9037 193.896 14.051 194.528 14.051C195.187 14.051 195.75 13.908 196.218 13.622C196.695 13.3273 197.059 12.907 197.31 12.361H198.727C198.389 13.2277 197.852 13.8993 197.115 14.376C196.379 14.844 195.516 15.078 194.528 15.078C193.688 15.078 192.921 14.883 192.227 14.493C191.543 14.0943 191.001 13.544 190.602 12.842C190.204 12.14 190.004 11.347 190.004 10.463ZM204.024 7.746C204.562 7.746 205.047 7.863 205.48 8.097C205.914 8.32233 206.252 8.66467 206.494 9.124C206.746 9.58333 206.871 10.1423 206.871 10.801V15H205.701V10.97C205.701 10.2593 205.524 9.71767 205.168 9.345C204.813 8.96367 204.328 8.773 203.712 8.773C203.088 8.773 202.59 8.968 202.217 9.358C201.853 9.748 201.671 10.3157 201.671 11.061V15H200.488V5.38H201.671V8.89C201.905 8.526 202.226 8.24433 202.633 8.045C203.049 7.84567 203.513 7.746 204.024 7.746ZM208.362 11.412C208.362 10.684 208.509 10.047 208.804 9.501C209.098 8.94633 209.501 8.51733 210.013 8.214C210.533 7.91067 211.109 7.759 211.742 7.759C212.366 7.759 212.907 7.89333 213.367 8.162C213.826 8.43067 214.168 8.76867 214.394 9.176V7.876H215.59V15H214.394V13.674C214.16 14.09 213.809 14.4367 213.341 14.714C212.881 14.9827 212.344 15.117 211.729 15.117C211.096 15.117 210.524 14.961 210.013 14.649C209.501 14.337 209.098 13.8993 208.804 13.336C208.509 12.7727 208.362 12.1313 208.362 11.412ZM214.394 11.425C214.394 10.8877 214.285 10.4197 214.069 10.021C213.852 9.62233 213.557 9.319 213.185 9.111C212.821 8.89433 212.418 8.786 211.976 8.786C211.534 8.786 211.131 8.89 210.767 9.098C210.403 9.306 210.112 9.60933 209.896 10.008C209.679 10.4067 209.571 10.8747 209.571 11.412C209.571 11.958 209.679 12.4347 209.896 12.842C210.112 13.2407 210.403 13.5483 210.767 13.765C211.131 13.973 211.534 14.077 211.976 14.077C212.418 14.077 212.821 13.973 213.185 13.765C213.557 13.5483 213.852 13.2407 214.069 12.842C214.285 12.4347 214.394 11.9623 214.394 11.425ZM219.032 8.851V13.05C219.032 13.3967 219.106 13.6437 219.253 13.791C219.4 13.9297 219.656 13.999 220.02 13.999H220.891V15H219.825C219.166 15 218.672 14.8483 218.343 14.545C218.014 14.2417 217.849 13.7433 217.849 13.05V8.851H216.926V7.876H217.849V6.082H219.032V7.876H220.891V8.851H219.032ZM224.846 15.117C224.3 15.117 223.811 15.026 223.377 14.844C222.944 14.6533 222.602 14.3933 222.35 14.064C222.099 13.726 221.96 13.3403 221.934 12.907H223.156C223.191 13.2623 223.356 13.5527 223.65 13.778C223.954 14.0033 224.348 14.116 224.833 14.116C225.284 14.116 225.639 14.0163 225.899 13.817C226.159 13.6177 226.289 13.3663 226.289 13.063C226.289 12.751 226.151 12.5213 225.873 12.374C225.596 12.218 225.167 12.0663 224.586 11.919C224.058 11.7803 223.624 11.6417 223.286 11.503C222.957 11.3557 222.671 11.1433 222.428 10.866C222.194 10.58 222.077 10.2073 222.077 9.748C222.077 9.384 222.186 9.05033 222.402 8.747C222.619 8.44367 222.927 8.20533 223.325 8.032C223.724 7.85 224.179 7.759 224.69 7.759C225.479 7.759 226.116 7.95833 226.601 8.357C227.087 8.75567 227.347 9.30167 227.381 9.995H226.198C226.172 9.62233 226.021 9.32333 225.743 9.098C225.475 8.87267 225.111 8.76 224.651 8.76C224.227 8.76 223.889 8.851 223.637 9.033C223.386 9.215 223.26 9.45333 223.26 9.748C223.26 9.982 223.334 10.177 223.481 10.333C223.637 10.4803 223.828 10.6017 224.053 10.697C224.287 10.7837 224.608 10.8833 225.015 10.996C225.527 11.1347 225.943 11.2733 226.263 11.412C226.584 11.542 226.857 11.7413 227.082 12.01C227.316 12.2787 227.438 12.6297 227.446 13.063C227.446 13.453 227.338 13.804 227.121 14.116C226.905 14.428 226.597 14.675 226.198 14.857C225.808 15.0303 225.358 15.117 224.846 15.117Z" fill="#E1EFFF"/>
<path d="M249.113 9.5L252 12.3868L254.887 9.5L252 6.61325L249.113 9.5ZM375.887 9.50001L373 6.61326L370.113 9.50001L373 12.3868L375.887 9.50001ZM252 10L373 10L373 9.00001L252 9L252 10Z" fill="url(#paint1_linear_168_3864)" fill-opacity="0.78"/>
<defs>
<linearGradient id="paint0_linear_168_3864" x1="3" y1="10" x2="124" y2="10" gradientUnits="userSpaceOnUse">
<stop stop-color="#615858" stop-opacity="0"/>
<stop offset="1" stop-color="#B4BBC7"/>
</linearGradient>
<linearGradient id="paint1_linear_168_3864" x1="252" y1="10" x2="373" y2="10" gradientUnits="userSpaceOnUse">
<stop stop-color="#B4BCC7"/>
<stop offset="1" stop-color="#615858" stop-opacity="0"/>
</linearGradient>
</defs>
</svg>
