<svg width="24" height="24" viewBox="0 0 24 24" fill="none" xmlns="http://www.w3.org/2000/svg">
<path d="M10 12C12.2091 12 14 10.2091 14 8C14 5.79086 12.2091 4 10 4C7.79086 4 6 5.79086 6 8C6 10.2091 7.79086 12 10 12Z" fill="#818489"/>
<path d="M10.35 14.0086C7.62 13.9086 2 15.2686 2 17.9986V18.9986C2 19.5486 2.45 19.9986 3 19.9986H11.54C9.07 17.2386 10.31 14.1086 10.35 14.0086ZM19.43 18.0186C19.9 17.2186 20.13 16.2486 19.91 15.1986C19.57 13.5586 18.19 12.2486 16.53 12.0386C13.9 11.6986 11.68 13.9086 12.03 16.5386C12.25 18.1986 13.55 19.5786 15.19 19.9186C16.24 20.1386 17.21 19.9086 18.01 19.4386L19.87 21.2986C20.057 21.4855 20.3106 21.5906 20.575 21.5906C20.8394 21.5906 21.093 21.4855 21.28 21.2986C21.467 21.1116 21.572 20.858 21.572 20.5936C21.572 20.3291 21.467 20.0755 21.28 19.8886L19.43 18.0186ZM16 17.9986C14.9 17.9986 14 17.0986 14 15.9986C14 14.8986 14.9 13.9986 16 13.9986C17.1 13.9986 18 14.8986 18 15.9986C18 17.0986 17.1 17.9986 16 17.9986Z" fill="#818489"/>
</svg>
