<svg width="25" height="24" viewBox="0 0 25 24" fill="none" xmlns="http://www.w3.org/2000/svg">
<path d="M20.0981 12.66C19.9378 12.4775 19.8494 12.2429 19.8494 12C19.8494 11.7571 19.9378 11.5225 20.0981 11.34L21.3781 9.90002C21.5192 9.74269 21.6068 9.54472 21.6283 9.33452C21.6499 9.12433 21.6043 8.9127 21.4981 8.73002L19.4981 5.27002C19.393 5.08754 19.233 4.94289 19.0409 4.8567C18.8488 4.77051 18.6343 4.74718 18.4281 4.79002L16.5481 5.17002C16.3089 5.21945 16.0599 5.17961 15.848 5.05802C15.6362 4.93643 15.4761 4.7415 15.3981 4.51002L14.7881 2.68002C14.7211 2.4814 14.5932 2.30888 14.4228 2.18686C14.2523 2.06484 14.0478 1.99948 13.8381 2.00002H9.83814C9.62007 1.98864 9.40427 2.04894 9.2237 2.17173C9.04313 2.29452 8.90772 2.47304 8.83814 2.68002L8.27814 4.51002C8.20014 4.7415 8.04011 4.93643 7.82825 5.05802C7.61639 5.17961 7.36736 5.21945 7.12814 5.17002L5.19814 4.79002C5.00269 4.7624 4.80344 4.79324 4.62549 4.87866C4.44753 4.96407 4.29884 5.10025 4.19814 5.27002L2.19814 8.73002C2.0893 8.91067 2.04036 9.1211 2.05832 9.33124C2.07628 9.54138 2.16022 9.74046 2.29814 9.90002L3.56814 11.34C3.72846 11.5225 3.81687 11.7571 3.81687 12C3.81687 12.2429 3.72846 12.4775 3.56814 12.66L2.29814 14.1C2.16022 14.2596 2.07628 14.4587 2.05832 14.6688C2.04036 14.8789 2.0893 15.0894 2.19814 15.27L4.19814 18.73C4.30324 18.9125 4.46326 19.0571 4.65539 19.1433C4.84752 19.2295 5.06196 19.2529 5.26814 19.21L7.14814 18.83C7.38736 18.7806 7.63639 18.8204 7.84825 18.942C8.06011 19.0636 8.22014 19.2585 8.29814 19.49L8.90814 21.32C8.97772 21.527 9.11313 21.7055 9.2937 21.8283C9.47427 21.9511 9.69007 22.0114 9.90814 22H13.9081C14.1178 22.0006 14.3223 21.9352 14.4928 21.8132C14.6632 21.6912 14.7911 21.5186 14.8581 21.32L15.4681 19.49C15.5461 19.2585 15.7062 19.0636 15.918 18.942C16.1299 18.8204 16.3789 18.7806 16.6181 18.83L18.4981 19.21C18.7043 19.2529 18.9188 19.2295 19.1109 19.1433C19.303 19.0571 19.463 18.9125 19.5681 18.73L21.5681 15.27C21.6743 15.0873 21.7199 14.8757 21.6983 14.6655C21.6768 14.4553 21.5892 14.2573 21.4481 14.1L20.0981 12.66ZM18.6081 14L19.4081 14.9L18.1281 17.12L16.9481 16.88C16.2279 16.7328 15.4787 16.8551 14.8427 17.2238C14.2068 17.5925 13.7283 18.1819 13.4981 18.88L13.1181 20H10.5581L10.1981 18.86C9.96799 18.1619 9.48952 17.5725 8.85354 17.2038C8.21757 16.8351 7.46836 16.7128 6.74814 16.86L5.56814 17.1L4.26814 14.89L5.06814 13.99C5.56009 13.44 5.83207 12.7279 5.83207 11.99C5.83207 11.2521 5.56009 10.54 5.06814 9.99002L4.26814 9.09002L5.54814 6.89002L6.72814 7.13002C7.44836 7.27724 8.19757 7.1549 8.83354 6.78622C9.46952 6.41753 9.94799 5.82818 10.1781 5.13002L10.5581 4.00002H13.1181L13.4981 5.14002C13.7283 5.83818 14.2068 6.42753 14.8427 6.79622C15.4787 7.1649 16.2279 7.28724 16.9481 7.14002L18.1281 6.90002L19.4081 9.12002L18.6081 10.02C18.1217 10.5688 17.8531 11.2767 17.8531 12.01C17.8531 12.7433 18.1217 13.4513 18.6081 14ZM11.8381 8.00002C11.047 8.00002 10.2737 8.23461 9.61586 8.67414C8.95806 9.11366 8.44537 9.73838 8.14262 10.4693C7.83987 11.2002 7.76066 12.0045 7.915 12.7804C8.06934 13.5563 8.4503 14.269 9.00971 14.8284C9.56912 15.3879 10.2819 15.7688 11.0578 15.9232C11.8337 16.0775 12.638 15.9983 13.3689 15.6955C14.0998 15.3928 14.7245 14.8801 15.164 14.2223C15.6035 13.5645 15.8381 12.7911 15.8381 12C15.8381 10.9392 15.4167 9.92174 14.6666 9.17159C13.9164 8.42144 12.899 8.00002 11.8381 8.00002ZM11.8381 14C11.4426 14 11.0559 13.8827 10.727 13.663C10.3981 13.4432 10.1418 13.1308 9.99038 12.7654C9.839 12.3999 9.7994 11.9978 9.87657 11.6098C9.95374 11.2219 10.1442 10.8655 10.4239 10.5858C10.7036 10.3061 11.06 10.1156 11.448 10.0384C11.8359 9.96128 12.2381 10.0009 12.6035 10.1523C12.969 10.3036 13.2813 10.56 13.5011 10.8889C13.7208 11.2178 13.8381 11.6045 13.8381 12C13.8381 12.5304 13.6274 13.0392 13.2524 13.4142C12.8773 13.7893 12.3686 14 11.8381 14Z" fill="#007AFF"/>
<path fill-rule="evenodd" clip-rule="evenodd" d="M18.6081 14L19.4081 14.9L18.1281 17.12L16.9481 16.88C16.2279 16.7328 15.4787 16.8551 14.8427 17.2238C14.2068 17.5925 13.7283 18.1819 13.4981 18.88L13.1181 20H10.5581L10.1981 18.86C9.96799 18.1619 9.48952 17.5725 8.85354 17.2038C8.21757 16.8351 7.46836 16.7128 6.74814 16.86L5.56814 17.1L4.26814 14.89L5.06814 13.99C5.56009 13.44 5.83207 12.7279 5.83207 11.99C5.83207 11.2521 5.56009 10.54 5.06814 9.99002L4.26814 9.09002L5.54814 6.89002L6.72814 7.13002C7.44836 7.27724 8.19757 7.1549 8.83354 6.78622C9.46952 6.41753 9.94799 5.82818 10.1781 5.13002L10.5581 4.00002H13.1181L13.4981 5.14002C13.7283 5.83818 14.2068 6.42753 14.8427 6.79622C15.4787 7.1649 16.2279 7.28724 16.9481 7.14002L18.1281 6.90002L19.4081 9.12002L18.6081 10.02C18.1217 10.5688 17.8531 11.2767 17.8531 12.01C17.8531 12.7433 18.1217 13.4513 18.6081 14ZM9.61586 8.67414C10.2737 8.23461 11.047 8.00002 11.8381 8.00002C12.899 8.00002 13.9164 8.42144 14.6666 9.17159C15.4167 9.92174 15.8381 10.9392 15.8381 12C15.8381 12.7911 15.6035 13.5645 15.164 14.2223C14.7245 14.8801 14.0998 15.3928 13.3689 15.6955C12.638 15.9983 11.8337 16.0775 11.0578 15.9232C10.2819 15.7688 9.56912 15.3879 9.00971 14.8284C8.4503 14.269 8.06934 13.5563 7.915 12.7804C7.76066 12.0045 7.83987 11.2002 8.14262 10.4693C8.44537 9.73838 8.95806 9.11366 9.61586 8.67414Z" fill="#007AFF"/>
</svg>
