<svg width="24" height="24" viewBox="0 0 24 24" fill="none" xmlns="http://www.w3.org/2000/svg">
<g clip-path="url(#clip0_375_2863)">
<path d="M16.3186 0.422505L16.8406 2.02901C17.0024 2.51764 17.2764 2.96163 17.6405 3.32549C18.0046 3.68934 18.4488 3.96297 18.9376 4.12451L20.5456 4.6465L20.5771 4.65551C20.701 4.69912 20.8083 4.78012 20.8842 4.88732C20.9601 4.99453 21.0009 5.12265 21.0009 5.254C21.0009 5.38536 20.9601 5.51348 20.8842 5.62069C20.8083 5.72789 20.701 5.80889 20.5771 5.8525L18.9706 6.37451C18.4815 6.53584 18.037 6.80938 17.6727 7.17325C17.3083 7.53711 17.0341 7.98121 16.8721 8.47001L16.3501 10.075C16.3064 10.1989 16.2254 10.3062 16.1182 10.3821C16.011 10.4581 15.8829 10.4988 15.7516 10.4988C15.6202 10.4988 15.4921 10.4581 15.3849 10.3821C15.2777 10.3062 15.1967 10.1989 15.1531 10.075L14.6311 8.47001C14.4702 7.97954 14.1966 7.53365 13.8321 7.16815C13.4677 6.80265 13.0226 6.52774 12.5326 6.36551L10.9246 5.8435C10.8007 5.79989 10.6933 5.71889 10.6174 5.61169C10.5415 5.50448 10.5007 5.37636 10.5007 5.245C10.5007 5.11365 10.5415 4.98553 10.6174 4.87832C10.6933 4.77112 10.8007 4.69012 10.9246 4.6465L12.5326 4.12451C13.0155 3.95881 13.4534 3.68331 13.8118 3.3197C14.1702 2.95608 14.4393 2.51427 14.5981 2.02901L15.1201 0.424005C15.1634 0.299578 15.2443 0.191716 15.3517 0.115386C15.4591 0.0390571 15.5876 -0.00195313 15.7193 -0.00195312C15.8511 -0.00195312 15.9795 0.0390571 16.0869 0.115386C16.1943 0.191716 16.2753 0.298078 16.3186 0.422505ZM23.6761 12.3205L22.5286 11.9485C22.1794 11.8323 21.862 11.6364 21.6016 11.3764C21.3413 11.1163 21.1451 10.7991 21.0286 10.45L20.6566 9.30401C20.6255 9.2154 20.5677 9.13864 20.4911 9.08433C20.4145 9.03002 20.3229 9.00085 20.2291 9.00085C20.1352 9.00085 20.0436 9.03002 19.967 9.08433C19.8904 9.13864 19.8326 9.2154 19.8016 9.30401L19.4266 10.45C19.3126 10.7964 19.1203 11.1118 18.8646 11.3717C18.6088 11.6316 18.2965 11.829 17.9521 11.9485L16.8046 12.3205C16.7166 12.3522 16.6406 12.4103 16.5869 12.4868C16.5332 12.5633 16.5044 12.6545 16.5044 12.748C16.5044 12.8415 16.5332 12.9327 16.5869 13.0092C16.6406 13.0857 16.7166 13.1438 16.8046 13.1755L17.9521 13.549C18.3017 13.6656 18.6194 13.8622 18.8798 14.1231C19.1402 14.384 19.3361 14.7021 19.4521 15.052L19.8241 16.198C19.8551 16.2866 19.9129 16.3634 19.9895 16.4177C20.0661 16.472 20.1577 16.5012 20.2516 16.5012C20.3454 16.5012 20.437 16.472 20.5136 16.4177C20.5902 16.3634 20.648 16.2866 20.6791 16.198L21.0526 15.052C21.1689 14.7031 21.3649 14.386 21.625 14.1259C21.8851 13.8658 22.2021 13.6699 22.5511 13.5535L23.6986 13.1815C23.7865 13.1498 23.8625 13.0917 23.9162 13.0152C23.9699 12.9387 23.9987 12.8475 23.9987 12.754C23.9987 12.6605 23.9699 12.5693 23.9162 12.4928C23.8625 12.4163 23.7865 12.3582 23.6986 12.3265L23.6761 12.3205ZM18.4156 16.7245C18.5516 17.0695 18.7646 17.359 19.0546 17.593C18.2123 18.6564 17.1403 19.5153 15.9188 20.1052C14.6973 20.6952 13.3581 21.0009 12.0016 20.9995C10.4195 21 8.86532 20.5835 7.49556 19.792L3.98856 20.962C3.85899 21.0053 3.72007 21.0123 3.58679 20.9824C3.45351 20.9525 3.33093 20.8867 3.23228 20.7923C3.13363 20.6978 3.06265 20.5781 3.02701 20.4463C2.99138 20.3144 2.99243 20.1753 3.03006 20.044L4.09806 16.3075C3.39293 15.0141 3.01605 13.5674 3.0005 12.0944C2.98496 10.6214 3.33122 9.1671 4.0089 7.85913C4.68657 6.55117 5.67495 5.42954 6.88727 4.5927C8.09959 3.75586 9.49879 3.22939 10.9621 3.0595L10.4281 3.2305C10.0081 3.38051 9.64806 3.65051 9.39306 4.0105C9.13806 4.372 9.00156 4.79351 9.00156 5.24351C9.00156 5.6935 9.13656 6.11501 9.39156 6.47501C9.64656 6.83501 10.0066 7.12151 10.4566 7.27151L12.0496 7.7965C12.2746 7.87151 12.4846 7.99301 12.7546 8.23301C12.9196 8.39801 13.0546 8.59301 13.1896 8.93951L13.7296 10.5775C13.8661 10.9525 14.1061 11.2975 14.5111 11.6125C14.7211 11.7635 14.9461 11.869 15.1861 11.929C15.0661 12.184 15.0061 12.469 15.0061 12.7555C15.0061 13.1605 15.1261 13.552 15.3661 13.882C15.6076 14.212 15.9376 14.4535 16.3426 14.6035L17.4841 14.9785C17.6041 15.0235 17.7241 15.0985 17.8141 15.1885C17.9191 15.2785 17.9791 15.4 18.0241 15.52L18.4156 16.7245Z" fill="#007AFF"/>
</g>
<defs>
<clipPath id="clip0_375_2863">
<rect width="24" height="24" fill="white"/>
</clipPath>
</defs>
</svg>
