<svg width="38" height="38" viewBox="0 0 38 38" fill="none" xmlns="http://www.w3.org/2000/svg">
<path d="M35.5625 37.75C31.2222 37.75 26.934 36.8042 22.6979 34.9125C18.4618 33.0208 14.6076 30.3382 11.1354 26.8646C7.6632 23.391 4.98125 19.5368 3.08958 15.3021C1.19792 11.0674 0.251389 6.77917 0.25 2.4375C0.25 1.8125 0.458333 1.29167 0.875 0.875C1.29167 0.458333 1.8125 0.25 2.4375 0.25H10.875C11.3611 0.25 11.7951 0.415278 12.1771 0.745833C12.559 1.07639 12.7847 1.46667 12.8542 1.91667L14.2083 9.20833C14.2778 9.76389 14.2604 10.2326 14.1562 10.6146C14.0521 10.9965 13.8611 11.3264 13.5833 11.6042L8.53125 16.7083C9.22569 17.9931 10.05 19.234 11.0042 20.4312C11.9583 21.6285 13.009 22.7833 14.1562 23.8958C15.2326 24.9722 16.3611 25.9708 17.5417 26.8917C18.7222 27.8125 19.9722 28.6542 21.2917 29.4167L26.1875 24.5208C26.5 24.2083 26.9083 23.9743 27.4125 23.8187C27.9167 23.6632 28.4111 23.6194 28.8958 23.6875L36.0833 25.1458C36.5694 25.2847 36.9687 25.5368 37.2812 25.9021C37.5937 26.2674 37.75 26.675 37.75 27.125V35.5625C37.75 36.1875 37.5417 36.7083 37.125 37.125C36.7083 37.5417 36.1875 37.75 35.5625 37.75Z" fill="#076CE6"/>
</svg>
