<svg width="25" height="24" viewBox="0 0 25 24" fill="none" xmlns="http://www.w3.org/2000/svg">
<path d="M8.10156 16.5L15.1016 14.5L17.1016 7.5L10.1016 9.5L8.10156 16.5ZM12.6016 13.5C12.1849 13.5 11.8309 13.3543 11.5396 13.063C11.2482 12.7717 11.1022 12.4173 11.1016 12C11.1009 11.5827 11.2469 11.2287 11.5396 10.938C11.8322 10.6473 12.1862 10.5013 12.6016 10.5C13.0169 10.4987 13.3712 10.6447 13.6646 10.938C13.9579 11.2313 14.1036 11.5853 14.1016 12C14.0996 12.4147 13.9539 12.769 13.6646 13.063C13.3752 13.357 13.0209 13.5027 12.6016 13.5ZM12.6016 22C11.2182 22 9.91823 21.7373 8.70156 21.212C7.4849 20.6867 6.42656 19.9743 5.52656 19.075C4.62656 18.1757 3.91423 17.1173 3.38956 15.9C2.8649 14.6827 2.60223 13.3827 2.60156 12C2.6009 10.6173 2.86356 9.31733 3.38956 8.1C3.91556 6.88267 4.6279 5.82433 5.52656 4.925C6.42523 4.02567 7.48356 3.31333 8.70156 2.788C9.91956 2.26267 11.2196 2 12.6016 2C13.9836 2 15.2836 2.26267 16.5016 2.788C17.7196 3.31333 18.7779 4.02567 19.6766 4.925C20.5752 5.82433 21.2879 6.88267 21.8146 8.1C22.3412 9.31733 22.6036 10.6173 22.6016 12C22.5996 13.3827 22.3369 14.6827 21.8136 15.9C21.2902 17.1173 20.5779 18.1757 19.6766 19.075C18.7752 19.9743 17.7169 20.687 16.5016 21.213C15.2862 21.739 13.9862 22.0013 12.6016 22Z" fill="#007AFF"/>
</svg>
