<svg width="28" height="30" viewBox="0 0 28 30" fill="none" xmlns="http://www.w3.org/2000/svg">
<g filter="url(#filter0_d_375_86)">
<path d="M23.3605 2.49611C23.292 2.42085 23.209 2.36025 23.1164 2.31799C23.0238 2.27573 22.9237 2.25267 22.8219 2.25022C22.7202 2.24777 22.619 2.26596 22.5245 2.30371C22.43 2.34147 22.3441 2.39798 22.2721 2.46986L21.6922 3.04689C21.622 3.11721 21.5825 3.21255 21.5825 3.31197C21.5825 3.41138 21.622 3.50673 21.6922 3.57704L22.2238 4.10767C22.2587 4.14268 22.3001 4.17046 22.3457 4.18941C22.3913 4.20837 22.4402 4.21812 22.4896 4.21812C22.539 4.21812 22.5879 4.20837 22.6335 4.18941C22.6791 4.17046 22.7205 4.14268 22.7554 4.10767L23.3207 3.54517C23.6066 3.2597 23.6333 2.7947 23.3605 2.49611ZM20.5199 4.21876L12.058 12.6656C12.0067 12.7167 11.9694 12.7802 11.9497 12.8499L11.5583 14.0156C11.549 14.0473 11.5483 14.0808 11.5564 14.1128C11.5645 14.1448 11.5811 14.174 11.6045 14.1973C11.6278 14.2207 11.657 14.2373 11.689 14.2454C11.7209 14.2535 11.7545 14.2528 11.7862 14.2435L12.951 13.852C13.0207 13.8324 13.0841 13.7951 13.1352 13.7438L21.5821 5.28095C21.6602 5.20197 21.7041 5.09534 21.7041 4.98423C21.7041 4.87312 21.6602 4.7665 21.5821 4.68751L21.1157 4.21876C21.0366 4.1399 20.9295 4.09562 20.8178 4.09562C20.7061 4.09562 20.599 4.1399 20.5199 4.21876Z" fill="#007AFF"/>
<path d="M19.9105 9.07781L14.1969 14.8027C13.976 15.024 13.7046 15.1883 13.4061 15.2812L12.192 15.6877C11.9039 15.769 11.5993 15.7721 11.3096 15.6965C11.0199 15.621 10.7556 15.4696 10.5438 15.2579C10.3321 15.0462 10.1807 14.7818 10.1052 14.4921C10.0296 14.2024 10.0327 13.8978 10.1141 13.6097L10.5205 12.3956C10.6132 12.0972 10.7771 11.8258 10.9981 11.6048L16.723 5.89031C16.7754 5.8379 16.8112 5.77109 16.8257 5.69835C16.8402 5.62562 16.8328 5.55021 16.8045 5.48167C16.7761 5.41313 16.7281 5.35454 16.6664 5.3133C16.6048 5.27206 16.5323 5.25003 16.4581 5.25H6.67578C5.97959 5.25 5.31191 5.52656 4.81963 6.01884C4.32734 6.51113 4.05078 7.17881 4.05078 7.875V19.125C4.05078 19.8212 4.32734 20.4889 4.81963 20.9812C5.31191 21.4734 5.97959 21.75 6.67578 21.75H17.9258C18.622 21.75 19.2897 21.4734 19.7819 20.9812C20.2742 20.4889 20.5508 19.8212 20.5508 19.125V9.34266C20.5507 9.26849 20.5287 9.19599 20.4875 9.13434C20.4462 9.07269 20.3877 9.02465 20.3191 8.9963C20.2506 8.96795 20.1752 8.96057 20.1024 8.97507C20.0297 8.98958 19.9629 9.02534 19.9105 9.07781Z" fill="#007AFF"/>
</g>
<defs>
<filter id="filter0_d_375_86" x="-2.19922" y="0" width="32" height="32" filterUnits="userSpaceOnUse" color-interpolation-filters="sRGB">
<feFlood flood-opacity="0" result="BackgroundImageFix"/>
<feColorMatrix in="SourceAlpha" type="matrix" values="0 0 0 0 0 0 0 0 0 0 0 0 0 0 0 0 0 0 127 0" result="hardAlpha"/>
<feOffset dy="4"/>
<feGaussianBlur stdDeviation="2"/>
<feComposite in2="hardAlpha" operator="out"/>
<feColorMatrix type="matrix" values="0 0 0 0 0 0 0 0 0 0 0 0 0 0 0 0 0 0 0.25 0"/>
<feBlend mode="normal" in2="BackgroundImageFix" result="effect1_dropShadow_375_86"/>
<feBlend mode="normal" in="SourceGraphic" in2="effect1_dropShadow_375_86" result="shape"/>
</filter>
</defs>
</svg>
