<svg width="25" height="24" viewBox="0 0 25 24" fill="none" xmlns="http://www.w3.org/2000/svg">
<path d="M20.0981 12.6594C19.9378 12.4769 19.8494 12.2423 19.8494 11.9994C19.8494 11.7565 19.9378 11.5219 20.0981 11.3394L21.3781 9.89941C21.5192 9.74208 21.6068 9.54411 21.6283 9.33391C21.6499 9.12372 21.6043 8.91209 21.4981 8.72941L19.4981 5.26941C19.393 5.08693 19.233 4.94228 19.0409 4.85609C18.8488 4.7699 18.6343 4.74656 18.4281 4.78941L16.5481 5.16941C16.3089 5.21884 16.0599 5.179 15.848 5.05741C15.6362 4.93582 15.4761 4.74089 15.3981 4.50941L14.7881 2.67941C14.7211 2.48079 14.5932 2.30827 14.4228 2.18625C14.2523 2.06423 14.0478 1.99887 13.8381 1.99941H9.83814C9.62007 1.98802 9.40427 2.04833 9.2237 2.17112C9.04313 2.29391 8.90772 2.47243 8.83814 2.67941L8.27814 4.50941C8.20014 4.74089 8.04011 4.93582 7.82825 5.05741C7.61639 5.179 7.36736 5.21884 7.12814 5.16941L5.19814 4.78941C5.00269 4.76179 4.80344 4.79263 4.62549 4.87805C4.44753 4.96346 4.29884 5.09964 4.19814 5.26941L2.19814 8.72941C2.0893 8.91006 2.04036 9.12049 2.05832 9.33063C2.07628 9.54077 2.16022 9.73985 2.29814 9.89941L3.56814 11.3394C3.72846 11.5219 3.81687 11.7565 3.81687 11.9994C3.81687 12.2423 3.72846 12.4769 3.56814 12.6594L2.29814 14.0994C2.16022 14.259 2.07628 14.458 2.05832 14.6682C2.04036 14.8783 2.0893 15.0888 2.19814 15.2694L4.19814 18.7294C4.30324 18.9119 4.46326 19.0565 4.65539 19.1427C4.84752 19.2289 5.06196 19.2522 5.26814 19.2094L7.14814 18.8294C7.38736 18.78 7.63639 18.8198 7.84825 18.9414C8.06011 19.063 8.22014 19.2579 8.29814 19.4894L8.90814 21.3194C8.97772 21.5264 9.11313 21.7049 9.2937 21.8277C9.47427 21.9505 9.69007 22.0108 9.90814 21.9994H13.9081C14.1178 21.9999 14.3223 21.9346 14.4928 21.8126C14.6632 21.6905 14.7911 21.518 14.8581 21.3194L15.4681 19.4894C15.5461 19.2579 15.7062 19.063 15.918 18.9414C16.1299 18.8198 16.3789 18.78 16.6181 18.8294L18.4981 19.2094C18.7043 19.2522 18.9188 19.2289 19.1109 19.1427C19.303 19.0565 19.463 18.9119 19.5681 18.7294L21.5681 15.2694C21.6743 15.0867 21.7199 14.8751 21.6983 14.6649C21.6768 14.4547 21.5892 14.2567 21.4481 14.0994L20.0981 12.6594ZM18.6081 13.9994L19.4081 14.8994L18.1281 17.1194L16.9481 16.8794C16.2279 16.7322 15.4787 16.8545 14.8427 17.2232C14.2068 17.5919 13.7283 18.1812 13.4981 18.8794L13.1181 19.9994H10.5581L10.1981 18.8594C9.96799 18.1612 9.48952 17.5719 8.85354 17.2032C8.21757 16.8345 7.46836 16.7122 6.74814 16.8594L5.56814 17.0994L4.26814 14.8894L5.06814 13.9894C5.56009 13.4394 5.83207 12.7273 5.83207 11.9894C5.83207 11.2515 5.56009 10.5394 5.06814 9.98941L4.26814 9.08941L5.54814 6.88941L6.72814 7.12941C7.44836 7.27663 8.19757 7.15429 8.83354 6.78561C9.46952 6.41692 9.94799 5.82757 10.1781 5.12941L10.5581 3.99941H13.1181L13.4981 5.13941C13.7283 5.83757 14.2068 6.42692 14.8427 6.79561C15.4787 7.16429 16.2279 7.28663 16.9481 7.13941L18.1281 6.89941L19.4081 9.11941L18.6081 10.0194C18.1217 10.5682 17.8531 11.2761 17.8531 12.0094C17.8531 12.7427 18.1217 13.4506 18.6081 13.9994ZM11.8381 7.99941C11.047 7.99941 10.2737 8.234 9.61586 8.67353C8.95806 9.11305 8.44537 9.73777 8.14262 10.4687C7.83987 11.1996 7.76066 12.0038 7.915 12.7798C8.06934 13.5557 8.4503 14.2684 9.00971 14.8278C9.56912 15.3872 10.2819 15.7682 11.0578 15.9225C11.8337 16.0769 12.638 15.9977 13.3689 15.6949C14.0998 15.3922 14.7245 14.8795 15.164 14.2217C15.6035 13.5639 15.8381 12.7905 15.8381 11.9994C15.8381 10.9385 15.4167 9.92112 14.6666 9.17098C13.9164 8.42083 12.899 7.99941 11.8381 7.99941ZM11.8381 13.9994C11.4426 13.9994 11.0559 13.8821 10.727 13.6623C10.3981 13.4426 10.1418 13.1302 9.99038 12.7648C9.839 12.3993 9.7994 11.9972 9.87657 11.6092C9.95374 11.2213 10.1442 10.8649 10.4239 10.5852C10.7036 10.3055 11.06 10.115 11.448 10.0378C11.8359 9.96067 12.2381 10.0003 12.6035 10.1516C12.969 10.303 13.2813 10.5594 13.5011 10.8883C13.7208 11.2172 13.8381 11.6038 13.8381 11.9994C13.8381 12.5298 13.6274 13.0385 13.2524 13.4136C12.8773 13.7887 12.3686 13.9994 11.8381 13.9994Z" fill="#484C52"/>
</svg>
