<svg width="12" height="12" viewBox="0 0 12 12" fill="none" xmlns="http://www.w3.org/2000/svg">
<path d="M1.5 5.11686L1.8735 5.08486C1.86489 4.98882 1.81962 4.89978 1.74708 4.83625C1.67454 4.77271 1.58032 4.73956 1.48398 4.74368C1.38764 4.7478 1.29659 4.78887 1.22974 4.85836C1.16289 4.92786 1.12538 5.02043 1.125 5.11686H1.5ZM10.118 6.02836L9.765 8.06836L10.5045 8.19636L10.857 6.15636L10.118 6.02836ZM6.6225 10.6249H4.298V11.3749H6.6225V10.6249ZM3.8425 10.2064L3.4365 5.50986L2.689 5.57436L3.0955 10.2709L3.8425 10.2064ZM9.765 8.06836C9.5115 9.53336 8.1905 10.6249 6.6225 10.6249V11.3749C8.5355 11.3749 10.1855 10.0404 10.5045 8.19636L9.765 8.06836ZM6.6275 2.54986L6.296 4.57236L7.036 4.69336L7.3675 2.67136L6.6275 2.54986ZM3.594 5.12286L4.3135 4.50286L3.8235 3.93486L3.105 4.55486L3.594 5.12286ZM5.622 2.48586L5.86 1.56886L5.134 1.38086L4.896 2.29736L5.622 2.48586ZM6.219 1.38886L6.2915 1.41236L6.521 0.69836L6.4485 0.674861L6.219 1.38886ZM5.2615 3.40786C5.41759 3.11581 5.5386 2.80633 5.622 2.48586L4.896 2.29736C4.8271 2.5605 4.72777 2.81472 4.6 3.05486L5.2615 3.40786ZM6.2915 1.41236C6.36273 1.43419 6.42734 1.47355 6.47941 1.52684C6.53148 1.58013 6.56933 1.64564 6.5895 1.71736L7.3155 1.52936C7.26405 1.33501 7.1642 1.15686 7.02526 1.01155C6.88633 0.866231 6.71284 0.758483 6.521 0.69836L6.2915 1.41236ZM5.86 1.56886C5.87012 1.53292 5.88786 1.49958 5.91202 1.4711C5.93618 1.44263 5.96618 1.4197 6 1.40386L5.6745 0.728361C5.4085 0.856361 5.2085 1.09336 5.134 1.38086L5.86 1.56886ZM6 1.40386C6.06848 1.37137 6.14673 1.36601 6.219 1.38886L6.4485 0.674861C6.19313 0.593226 5.91621 0.612367 5.6745 0.728361L6 1.40386ZM7.077 5.49186H9.667V4.74186H7.077V5.49186ZM2.3595 10.7029L1.8735 5.08486L1.1265 5.14936L1.6115 10.7674L2.3595 10.7029ZM1.875 10.7564V5.11686H1.125V10.7564H1.875ZM1.6115 10.7674C1.60997 10.7492 1.61274 10.7309 1.61867 10.7137C1.62459 10.6964 1.63403 10.6806 1.6464 10.6672C1.65877 10.6538 1.67378 10.6431 1.6905 10.6358C1.70722 10.6285 1.72527 10.6248 1.7435 10.6249V11.3749C2.1065 11.3749 2.3905 11.0639 2.3595 10.7029L1.6115 10.7674ZM7.3675 2.67136C7.43035 2.29125 7.41264 1.90218 7.3155 1.52936L6.5895 1.71786C6.66041 1.98945 6.67336 2.27293 6.6275 2.54986L7.3675 2.67136ZM4.298 10.6249C4.18351 10.6247 4.07324 10.5816 3.98893 10.5041C3.90461 10.4267 3.85237 10.3204 3.8425 10.2064L3.0955 10.2709C3.12152 10.5719 3.25944 10.8523 3.48205 11.0567C3.70467 11.2611 3.9958 11.3746 4.298 11.3749V10.6249ZM4.3135 4.50286C4.6535 4.20986 5.0195 3.86136 5.262 3.40786L4.6 3.05486C4.427 3.37936 4.1515 3.65286 3.8235 3.93486L4.3135 4.50286ZM10.857 6.15636C10.8871 5.98285 10.8789 5.80486 10.833 5.63486C10.7871 5.46485 10.7045 5.30694 10.5912 5.17219C10.4778 5.03743 10.3363 4.92909 10.1767 4.85476C10.0171 4.78043 9.8431 4.74189 9.667 4.74186V5.49186C9.9505 5.49186 10.167 5.74786 10.118 6.02836L10.857 6.15636ZM1.7435 10.6249C1.8165 10.6249 1.875 10.6839 1.875 10.7564H1.125C1.125 11.0974 1.4015 11.3749 1.7435 11.3749V10.6249ZM6.296 4.57236C6.27736 4.68565 6.28359 4.80164 6.31426 4.91228C6.34493 5.02292 6.3993 5.12557 6.4736 5.21309C6.5479 5.30062 6.64036 5.37093 6.74455 5.41916C6.84875 5.46738 6.96219 5.49186 7.077 5.49186V4.74186C7.0709 4.74189 7.06487 4.74107 7.05933 4.7385C7.0538 4.73593 7.0489 4.73217 7.04499 4.72749C7.04107 4.72281 7.03824 4.71733 7.03668 4.71143C7.03513 4.70553 7.0349 4.69936 7.036 4.69336L6.296 4.57236ZM3.4365 5.50986C3.4304 5.43746 3.44104 5.36464 3.4685 5.29738C3.49597 5.23011 3.53897 5.17031 3.594 5.12286L3.104 4.55436C2.95907 4.67943 2.84589 4.8371 2.77374 5.01441C2.7016 5.19173 2.67256 5.38364 2.689 5.57436L3.4365 5.50986Z" fill="#798088"/>
<path d="M1.5 5.11686L1.8735 5.08486C1.86489 4.98882 1.81962 4.89978 1.74708 4.83625C1.67454 4.77271 1.58032 4.73956 1.48398 4.74368C1.38764 4.7478 1.29659 4.78887 1.22974 4.85836C1.16289 4.92786 1.12538 5.02043 1.125 5.11686H1.5ZM10.118 6.02836L9.765 8.06836L10.5045 8.19636L10.857 6.15636L10.118 6.02836ZM6.6225 10.6249H4.298V11.3749H6.6225V10.6249ZM3.8425 10.2064L3.4365 5.50986L2.689 5.57436L3.0955 10.2709L3.8425 10.2064ZM9.765 8.06836C9.5115 9.53336 8.1905 10.6249 6.6225 10.6249V11.3749C8.5355 11.3749 10.1855 10.0404 10.5045 8.19636L9.765 8.06836ZM6.6275 2.54986L6.296 4.57236L7.036 4.69336L7.3675 2.67136L6.6275 2.54986ZM3.594 5.12286L4.3135 4.50286L3.8235 3.93486L3.105 4.55486L3.594 5.12286ZM5.622 2.48586L5.86 1.56886L5.134 1.38086L4.896 2.29736L5.622 2.48586ZM6.219 1.38886L6.2915 1.41236L6.521 0.69836L6.4485 0.674861L6.219 1.38886ZM5.2615 3.40786C5.41759 3.11581 5.5386 2.80633 5.622 2.48586L4.896 2.29736C4.8271 2.5605 4.72777 2.81472 4.6 3.05486L5.2615 3.40786ZM6.2915 1.41236C6.36273 1.43419 6.42734 1.47355 6.47941 1.52684C6.53148 1.58013 6.56933 1.64564 6.5895 1.71736L7.3155 1.52936C7.26405 1.33501 7.1642 1.15686 7.02526 1.01155C6.88633 0.866231 6.71284 0.758483 6.521 0.69836L6.2915 1.41236ZM5.86 1.56886C5.87012 1.53292 5.88786 1.49958 5.91202 1.4711C5.93618 1.44263 5.96618 1.4197 6 1.40386L5.6745 0.728361C5.4085 0.856361 5.2085 1.09336 5.134 1.38086L5.86 1.56886ZM6 1.40386C6.06848 1.37137 6.14673 1.36601 6.219 1.38886L6.4485 0.674861C6.19313 0.593226 5.91621 0.612367 5.6745 0.728361L6 1.40386ZM7.077 5.49186H9.667V4.74186H7.077V5.49186ZM2.3595 10.7029L1.8735 5.08486L1.1265 5.14936L1.6115 10.7674L2.3595 10.7029ZM1.875 10.7564V5.11686H1.125V10.7564H1.875ZM1.6115 10.7674C1.60997 10.7492 1.61274 10.7309 1.61867 10.7137C1.62459 10.6964 1.63403 10.6806 1.6464 10.6672C1.65877 10.6538 1.67378 10.6431 1.6905 10.6358C1.70722 10.6285 1.72527 10.6248 1.7435 10.6249V11.3749C2.1065 11.3749 2.3905 11.0639 2.3595 10.7029L1.6115 10.7674ZM7.3675 2.67136C7.43035 2.29125 7.41264 1.90218 7.3155 1.52936L6.5895 1.71786C6.66041 1.98945 6.67336 2.27293 6.6275 2.54986L7.3675 2.67136ZM4.298 10.6249C4.18351 10.6247 4.07324 10.5816 3.98893 10.5041C3.90461 10.4267 3.85237 10.3204 3.8425 10.2064L3.0955 10.2709C3.12152 10.5719 3.25944 10.8523 3.48205 11.0567C3.70467 11.2611 3.9958 11.3746 4.298 11.3749V10.6249ZM4.3135 4.50286C4.6535 4.20986 5.0195 3.86136 5.262 3.40786L4.6 3.05486C4.427 3.37936 4.1515 3.65286 3.8235 3.93486L4.3135 4.50286ZM10.857 6.15636C10.8871 5.98285 10.8789 5.80486 10.833 5.63486C10.7871 5.46485 10.7045 5.30694 10.5912 5.17219C10.4778 5.03743 10.3363 4.92909 10.1767 4.85476C10.0171 4.78043 9.8431 4.74189 9.667 4.74186V5.49186C9.9505 5.49186 10.167 5.74786 10.118 6.02836L10.857 6.15636ZM1.7435 10.6249C1.8165 10.6249 1.875 10.6839 1.875 10.7564H1.125C1.125 11.0974 1.4015 11.3749 1.7435 11.3749V10.6249ZM6.296 4.57236C6.27736 4.68565 6.28359 4.80164 6.31426 4.91228C6.34493 5.02292 6.3993 5.12557 6.4736 5.21309C6.5479 5.30062 6.64036 5.37093 6.74455 5.41916C6.84875 5.46738 6.96219 5.49186 7.077 5.49186V4.74186C7.0709 4.74189 7.06487 4.74107 7.05933 4.7385C7.0538 4.73593 7.0489 4.73217 7.04499 4.72749C7.04107 4.72281 7.03824 4.71733 7.03668 4.71143C7.03513 4.70553 7.0349 4.69936 7.036 4.69336L6.296 4.57236ZM3.4365 5.50986C3.4304 5.43746 3.44104 5.36464 3.4685 5.29738C3.49597 5.23011 3.53897 5.17031 3.594 5.12286L3.104 4.55436C2.95907 4.67943 2.84589 4.8371 2.77374 5.01441C2.7016 5.19173 2.67256 5.38364 2.689 5.57436L3.4365 5.50986Z" fill="#798088"/>
</svg>
